<svg xmlns="http://www.w3.org/2000/svg" width="400" height="600" viewBox="0 0 400 600">
  <rect width="400" height="600" fill="#1a1c23"/>
  <circle cx="200" cy="300" r="150" fill="#4a6b8c" opacity="0.15" filter="blur(40px)"/>
  
  <g transform="translate(100, 150) scale(1.5)">
    <path d="M40 20 L90 20 L110 40 L130 90 L110 100 L100 80 L100 200 L30 200 L30 80 L20 100 L0 90 L20 40 Z" fill="#2c435e"/>
    <path d="M40 20 L65 40 L90 20 L80 15 L50 15 Z" fill="#1c2e45"/>
    <rect x="45" y="70" width="15" height="20" fill="#1c2e45" rx="2"/>
    <rect x="70" y="70" width="15" height="20" fill="#1c2e45" rx="2"/>
    <rect x="30" y="190" width="70" height="10" fill="#222"/>
  </g>
  
  <g transform="translate(100, 150) scale(1.5)" opacity="0.3">
    <circle cx="40" cy="50" r="10" fill="#4a6b8c"/>
    <circle cx="80" cy="120" r="15" fill="#4a6b8c"/>
    <circle cx="50" cy="160" r="12" fill="#1c2e45"/>
    <circle cx="90" cy="80" r="8" fill="#1c2e45"/>
    <circle cx="110" cy="60" r="6" fill="#4a6b8c"/>
    <circle cx="20" cy="70" r="9" fill="#1c2e45"/>
  </g>

  <g transform="translate(150, 480)">
    <rect width="100" height="30" fill="#111" rx="4"/>
    <text x="50" y="20" font-family="sans-serif" font-weight="bold" font-size="14" fill="#00E5FF" text-anchor="middle">TNI AL</text>
  </g>
</svg>
